<svg version="1.0" xmlns="http://www.w3.org/2000/svg" viewBox="194.07 181.1 126.69 148.9" preserveAspectRatio="xMidYMid meet">

<g transform="translate(0.000000,512.000000) scale(0.100000,-0.100000)" fill="#000000" stroke="none">
<path d="M2385 3295 c-133 -29 -218 -77 -303 -170 -147 -161 -185 -432 -87
-625 33 -64 114 -153 172 -187 l43 -25 2 -231 3 -232 59 -3 c40 -2 62 1 68 10
4 7 8 92 8 188 -1 96 -1 185 0 198 0 21 4 22 88 22 149 0 252 39 343 130 75
74 102 144 103 260 1 74 -3 92 -28 144 -16 32 -47 77 -68 98 -22 22 -65 52
-97 67 -47 22 -70 26 -141 26 -71 0 -94 -4 -141 -26 -68 -32 -131 -96 -167
-169 -23 -48 -27 -68 -30 -182 -3 -70 -8 -128 -13 -128 -16 0 -60 55 -84 105
-48 97 -54 205 -18 320 51 162 179 262 367 287 297 40 557 -161 606 -468 16
-97 -1 -198 -50 -299 -42 -86 -76 -127 -155 -190 -61 -49 -65 -53 -65 -87 0
-20 30 -62 122 -167 l123 -141 77 0 c62 0 78 3 78 15 0 8 -52 73 -115 145 -63
71 -115 134 -115 139 0 5 8 16 19 23 41 29 115 128 151 203 127 262 72 567
-139 775 -129 128 -284 191 -465 189 -50 0 -118 -7 -151 -14z m250 -478 c11
-5 37 -26 58 -46 68 -64 80 -168 32 -261 -46 -90 -192 -151 -320 -135 l-55 6
0 156 c0 148 1 158 25 199 51 86 172 124 260 81z"></path>
</g>
</svg>