<svg xmlns="http://www.w3.org/2000/svg" viewBox="00 00 736 368">
  <g fill="#000000">
    <path d="M233.7 207.7c-3.4-1.7-24.6-3.2-25.9-1.7-0.5 0.4-0.8 2.5-0.8 4.6v3.8h9.6c11.7 0 15.3 1.5 15.4 6.6 0 1.1-0.6 2.9-1.4 4-1.2 1.6-3 2-12.3 2.4l-10.8 0.5-0.3 10.7-0.3 10.8h5.1 5v-6.5-6.5h5.4c2.9 0 6.8-0.5 8.7-1.1 12.8-4.3 14.4-21.5 2.6-27.6z"/>
    <path d="M306.7 207.7c-2.4-1.3-6.4-1.8-15.9-2h-12.8v4.5 4.5h10.8c12.3 0 15.2 1.1 15.2 6 0 3-2.2 5.9-4.6 6.1-0.8 0.1-1.8 0.3-2.4 0.4-0.5 0.1-5 0.3-10 0.4l-9 0.1v11 11h4.5 4.5v-7-7h3.9c3.6 0 4 0.3 8.5 7l4.6 7h5.6c6.3 0 6.3 0.6-0.4-8.9-4.1-5.9-4.3-6.4-2.6-7.4 9.8-5.5 9.8-20.2 0.1-25.4z"/>
    <path d="M362 205.9v21.9h4.5 4.5v-21.8-21.9h-4.5-4.5v21.8z"/>
    <path d="M410.8 184.2l-0.3 21.6-4.2-0.2-4.3-0.2v21.9 21.8h4.5 4.5l-0.2-21.7-0.2-21.7-4-0.2c-2.2-0.1-4.6 0-5.2 0.3-0.7 0.2-3.5 4.2-6.3 8.9-2.8 4.6-5.5 8.4-5.9 8.4-0.4 0-1.4-1.2-2.2-2.8-1.3-2.6-1.4-2.3-1.7 5.1-0.2 6.7 0 8.2 1.9 10.8l2.2 3.1 5.6-8.6c3.1-4.7 5.8-8.6 6.1-8.6 0.3 0 0.4 6.1 0.3 13.5l-0.2 13.5h5 4.9l-0.2-21.7-0.3-21.6z"/>
    <path d="M483 184v4.4h16.5 16.5v-4.4-4.4h-15.9c-8.7-0.1-16.1 0.2-16.5 0.5-0.3 0.4-0.6 2.4-0.6 4.5z"/>
    <path d="M483 201.5v4h16.5 16.5v-4-4h-16.5-16.5v4z"/>
    <path d="M483 219v4.5h16.5 16.5v-4.5-4.5h-15.8c-8.7 0-16.2 0.3-16.5 0.7-0.4 0.3-0.7 2.4-0.7 4.5z"/>
  </g>
</svg>